<?xml version="1.0" standalone="no"?>
<!DOCTYPE svg PUBLIC "-//W3C//DTD SVG 20010904//EN"
 "http://www.w3.org/TR/2001/REC-SVG-20010904/DTD/svg10.dtd">
<svg version="1.0" xmlns="http://www.w3.org/2000/svg"
 width="1600.000000pt" height="1600.000000pt" viewBox="0 0 1600.000000 1600.000000"
 preserveAspectRatio="xMidYMid meet">
<metadata>
Created by potrace 1.15, written by Peter Selinger 2001-2017
</metadata>
<g transform="translate(0.000000,1600.000000) scale(0.100000,-0.100000)"
fill="#000000" stroke="none">
<path d="M7565 15884 c-263 -16 -405 -27 -560 -44 -2949 -327 -5474 -2342
-6461 -5157 -223 -637 -358 -1291 -416 -2023 -16 -201 -16 -879 0 -1080 50
-620 150 -1162 317 -1714 478 -1577 1452 -2966 2780 -3963 1535 -1152 3442
-1692 5360 -1517 1811 164 3494 954 4785 2244 1696 1696 2505 4045 2219 6440
-237 1992 -1273 3845 -2859 5115 -1238 991 -2693 1562 -4295 1685 -141 11
-758 21 -870 14z m-2000 -4155 c125 -23 85 14 1237 -1136 l1076 -1076 1079
1075 c848 846 1089 1081 1129 1101 73 37 166 51 240 38 119 -22 131 -32 633
-530 549 -545 526 -514 526 -696 0 -188 103 -68 -1129 -1302 l-1081 -1083
1081 -1082 c1229 -1232 1129 -1116 1129 -1298 0 -98 -2 -110 -33 -175 -31 -66
-60 -97 -495 -527 -543 -538 -523 -523 -697 -523 -182 0 -66 -101 -1297 1129
l-1083 1081 -1082 -1081 c-1232 -1229 -1116 -1129 -1298 -1129 -176 0 -154
-17 -702 527 -507 503 -506 503 -526 633 -12 78 -1 157 34 237 26 59 88 124
1101 1138 l1073 1075 -1070 1070 c-1231 1230 -1135 1119 -1135 1310 0 180 -22
150 524 696 494 494 508 506 621 528 63 12 79 12 145 0z"/>
</g>
</svg>
